# xmcd
#
# Track frame offsets: 
#        150
#        18079
#        31905
#        51687
#        70180
#        83921
#        96139
#        112645
#        130002
#        146725
#
# Disc length: 2187 seconds
#
# Revision: 0
# Processed by: cddbd v1.5.2PL0 Copyright (c) Steve Scherf et al.
# Submitted via: ExactAudioCopy v1.3
#
DISCID=7d08890a
DTITLE=Jill Jackson - Are We There Yet
DYEAR=2018
DGENRE=[Folk][Country]
TTITLE0=1954
TTITLE1=My Baby
TTITLE2=Are We There Yet
TTITLE3=Finally
TTITLE4=Worries
TTITLE5=Needle And Thread
TTITLE6=Sweet Lullaby
TTITLE7=Hope And Gasoline
TTITLE8=Dynamite
TTITLE9=Goodbye
EXTD=
EXTT0=
EXTT1=
EXTT2=
EXTT3=
EXTT4=
EXTT5=
EXTT6=
EXTT7=
EXTT8=
EXTT9=
PLAYORDER=
